<?xml version="1.0" encoding="UTF-8"?>
<svg width="267px" height="110px" viewBox="0 0 267 110" version="1.1" xmlns="http://www.w3.org/2000/svg" xmlns:xlink="http://www.w3.org/1999/xlink">
    <title>Group 3</title>
    <g id="Page-1" stroke="none" stroke-width="1" fill="none" fill-rule="evenodd" opacity="0.9">
        <g id="home" transform="translate(-500.000000, -367.000000)">
            <g id="Group-3" transform="translate(500.000000, 367.000000)">
                <path d="M175.325055,49.443958 C171.092944,48.291252 167.644617,47.526676 164.18344,45.9956033 C161.110944,44.847859 158.036841,43.3161462 156.11914,41.7852336 C153.806336,39.8729133 151.888635,37.5742236 150.74187,35.2798554 C149.585467,32.6003982 149.2,29.5360121 149.2,26.088938 L149.2,25.7094509 C149.2,22.2622167 149.970935,19.1984708 151.1177,16.5196539 C152.65957,13.4570284 154.191803,11.1615398 156.493365,9.25098008 C159.193243,7.33481849 161.881879,5.80374584 165.330206,4.65616159 C168.404309,3.50825724 172.249346,2.74 176.084747,2.74 C181.847486,2.74 186.848926,3.50825724 191.840729,5.41881695 C196.445459,6.95165019 200.67757,9.63046715 204.512971,12.6930926 L197.216393,23.0299937 C193.758429,20.7306638 189.923028,18.4369358 186.463458,17.2885513 C183.003888,15.7568384 179.544318,14.9885812 175.708917,14.9885812 C171.863879,14.9885812 168.404309,16.1414472 166.101141,17.6723598 C164.18344,19.5829195 163.027038,21.8772878 163.027038,24.5565849 C163.027038,26.088938 163.027038,27.621131 163.799579,28.7738369 C164.18344,29.9204609 165.330206,31.0682052 166.486608,31.8308605 C168.018841,32.6003982 169.946179,33.7476623 172.249346,34.5103177 C174.937982,35.2798554 178.012085,36.0420306 181.847486,37.1891347 C185.692523,37.9586723 189.537561,39.1064166 192.611664,40.6374893 C196.059991,41.7852336 198.750233,43.3161462 200.67757,45.2323078 C202.979132,47.1433476 204.512971,49.058869 205.667767,51.7383262 C206.814533,54.0320542 207.2,57.0970805 207.2,60.1597059 L207.2,60.5430343 C207.2,63.9862672 206.438702,67.4346218 205.2823,70.114079 C204.512971,71.6449916 203.751673,72.7928959 202.979132,73.94 C203.366205,59.3914487 187.608618,52.1227749 175.325055,49.443958" id="Fill-1" fill="#FFFFFF"></path>
                <path d="M83.6,2.34 L113.591303,2.34 C118.572225,2.34 122.79511,3.11162884 126.618946,4.6467016 C130.455601,5.79756483 133.524606,7.71893347 136.205778,10.40503 C138.505527,12.3207815 140.032818,15.0073594 141.186699,17.6934559 C142.342183,20.7656878 142.715592,23.8372777 142.715592,27.295003 L142.715592,27.6748794 C142.715592,30.7451854 142.342183,33.8185407 141.186699,36.5046372 C140.419048,38.8058821 139.273179,41.1121023 137.350043,43.4127053 C135.822753,45.3289383 133.909233,46.865295 131.599867,48.4005282 C129.303323,49.5563666 126.618946,50.7072298 123.937774,51.4714762 L146.4,82.34 L129.921931,82.34 L109.37002,53.7732027 L97.3968969,53.7732027 L97.3968969,68.9284553 L83.6,68.9284553 L83.6,41.4913367 L112.437422,41.4913367 C117.427959,41.4913367 121.254999,40.3415969 124.322401,38.0398704 C127.389802,35.7336503 128.545287,32.282184 128.545287,28.4452243 L128.545287,28.0590889 C128.545287,23.8372777 127.389802,20.3795524 124.322401,18.4650848 C121.639626,16.1633583 117.427959,15.0073594 112.437422,15.0073594 L83.6,15.0073594 L83.6,2.34" id="Fill-2" fill="#FFFFFF"></path>
                <path d="M74,69.6815061 C71.6987675,71.2151595 69.7850283,72.7480118 67.4831545,74.2802234 C65.1812807,75.8125952 62.4980057,77.3417633 59.8148911,78.4956075 C57.1314559,79.25891 54.0626114,80.4076282 50.994248,80.7917624 C47.5462469,81.5614724 44.4774025,81.94 41.0269966,81.94 C34.8929951,81.94 29.1407154,80.7917624 24.1555667,78.8752564 C19.1702576,76.57782 14.9530414,73.89673 11.1199518,70.4505754 C7.66906497,66.6156412 4.98338522,62.4016988 3.06900474,57.4231725 C0.767772224,52.43952 0,47.0768595 0,41.3292638 L0,40.9494547 C0,35.5867942 1.14965434,30.6031417 3.06900474,25.6246153 C4.98338522,20.6422444 7.66906497,16.048493 11.5019943,12.5972124 C14.9530414,8.76740417 19.5555064,5.70217999 24.5374488,3.78935836 C29.5227578,1.48695611 34.8929951,0.34 40.6419081,0.34 C44.0927949,0.34 47.5462469,0.723493425 50.2296822,1.10218117 C52.9127968,1.48695611 55.596713,2.25586523 57.8955407,3.02044924 C60.5786553,4.16980818 62.8806895,5.31740505 64.7968335,6.47108911 C67.098066,7.6198073 69.0150116,9.15217911 71.3160838,11.0641998 L62.4980057,21.4105128 C60.9639042,20.2617946 59.4302836,19.1079503 57.8955407,17.9611544 C55.9793967,16.8117955 54.4470587,16.048493 52.9127968,15.2783023 C50.994248,14.5154804 49.0774627,14.1307055 47.1613187,13.7459305 C44.8594449,13.3667622 42.5580521,12.9819873 40.2593847,12.9819873 C36.8084978,12.9819873 33.3585729,13.7459305 30.2897285,15.2783023 C26.8393226,16.8117955 24.1555667,18.729583 21.8541738,21.4105128 C19.5555064,23.7081094 18.0212446,26.7733335 16.4865017,30.2196483 C15.3374887,33.6696474 14.570999,37.1196465 14.570999,40.9494547 L14.570999,41.3292638 C14.570999,45.1640378 15.3374887,48.993846 16.4865017,52.43952 C17.636156,55.8901599 19.5555064,58.9553841 21.8541738,61.2529806 C24.5374488,63.9345512 27.221365,65.8516979 30.2897285,67.3851911 C33.7406153,68.5340695 37.1915022,69.2967312 41.409039,69.2967312 C45.2445334,69.2967312 48.694779,68.9175629 51.7612186,67.7638788 C55.2116245,66.6156412 57.8955407,65.0827888 60.5786553,63.550417 L63.5392838,61.6670702 L74,69.6815061" id="Fill-4" fill="#FFFFFF"></path>
                <polygon id="Fill-13" fill="#FFFFFF" points="220 109.54 221.6 109.54 221.6 93.94 220 93.94"></polygon>
                <polyline id="Fill-14" fill="#FFFFFF" points="241.778774 93.94 241.778774 108.182283 228.457209 93.94 226.4 93.94 226.4 109.54 227.822849 109.54 227.822849 95.2978766 241.188218 109.54 243.2 109.54 243.2 93.94 241.778774 93.94"></polyline>
                <path d="M266.312812,104.383751 C266.061205,105.185868 265.689404,105.900375 265.199011,106.52711 C264.335214,107.621259 263.240644,108.462963 261.915301,109.054005 C260.589958,109.644236 259.091535,109.94 257.421635,109.94 C256.110715,109.94 254.892746,109.750179 253.769329,109.371185 C252.645913,108.992191 251.674742,108.452417 250.852613,107.752512 C248.951939,106.163366 248,104.092367 248,101.540162 C248,99.0317624 248.95835,96.9753646 250.875049,95.3711309 C251.709999,94.6712255 252.689183,94.1244751 253.812599,93.7308798 C254.936016,93.3367977 256.139562,93.14 257.421635,93.14 C259.091535,93.14 260.569125,93.4104549 261.851198,93.9495799 C263.133271,94.4895162 264.277521,95.3276504 265.285551,96.4651183 L263.990657,97.2962762 C263.024295,96.2905476 262.024278,95.5684153 260.985798,95.1308527 C259.948922,94.693128 258.761401,94.4744278 257.421635,94.4744278 C256.341488,94.4744278 255.333458,94.6352081 254.395942,94.9549841 C253.460029,95.2758957 252.639502,95.734225 251.932759,96.3307832 C250.320552,97.6992815 249.512846,99.4321719 249.512846,101.528968 C249.512846,102.57769 249.70035,103.531177 250.075356,104.390078 C250.44876,105.249628 250.982423,105.988471 251.674742,106.607256 C252.365459,107.225717 253.197204,107.706273 254.169977,108.048763 C255.141147,108.390604 256.226102,108.561443 257.421635,108.561443 C259.466542,108.561443 261.14125,108.086565 262.445759,107.134376 C263.748666,106.183484 264.631694,104.799898 265.091638,102.983778 L256.795022,102.983778 L256.795022,101.605221 L266.8,101.605221 C266.727883,102.655728 266.564419,103.582121 266.312812,104.383751" id="Fill-15" fill="#FFFFFF"></path>
                <path d="M100.341247,97.4740715 C99.4591549,96.5623172 98.456338,95.8954313 97.3360161,95.4748413 C96.2140845,95.0545684 94.9231388,94.8437975 93.4615694,94.8437975 C92.4201207,94.8437975 91.4317907,94.9941442 90.4997988,95.2937274 C89.5661972,95.5937864 88.7517103,96.0150109 88.0579477,96.5572422 C86.3645875,97.885146 85.5179074,99.6130227 85.5179074,101.739604 C85.5179074,102.767924 85.7094567,103.702992 86.094165,104.545758 C86.4772636,105.387731 87.016499,106.112662 87.7102616,106.719282 C88.4056338,107.325903 89.2410463,107.797243 90.2181087,108.132827 C91.1935614,108.468093 92.2752515,108.635727 93.4615694,108.635727 C95.0100604,108.635727 96.3476861,108.432886 97.4760563,108.026727 C98.6060362,107.619776 99.5605634,106.968274 100.341247,106.070159 L101.513078,106.818562 C100.732394,107.830547 99.6796781,108.603532 98.3565392,109.138151 C97.0317907,109.673246 95.4655936,109.94 93.6579477,109.94 C91.6313883,109.94 89.8382294,109.533842 88.2752515,108.721526 C86.9006036,108.008806 85.844668,107.053915 85.105835,105.856216 C84.3686117,104.658518 84,103.283353 84,101.729295 C84,99.2487333 84.9754527,97.224921 86.9295775,95.6567481 C87.7682093,94.9717825 88.7452716,94.4485824 89.8591549,94.0849274 C90.9730382,93.7212724 92.1738431,93.54 93.4615694,93.54 C95.256338,93.54 96.8434608,93.835777 98.2261569,94.4270137 C99.6072435,95.0187262 100.732394,95.8700564 101.6,96.9827487 L100.341247,97.4740715" id="Fill-6" fill="#FFFFFF"></path>
                <path d="M119.913958,107.774435 C119.09622,108.459895 118.134738,108.992038 117.027916,109.371028 C115.922691,109.750018 114.716846,109.94 113.410381,109.94 C112.103916,109.94 110.894877,109.750018 109.781667,109.371028 C108.670054,108.992038 107.70378,108.459895 106.886042,107.774435 C104.961482,106.170217 104,104.092423 104,101.540243 C104,99.0172663 104.969467,96.946449 106.908402,95.3277915 C107.738918,94.6277307 108.713176,94.0886108 109.82479,93.7088096 C110.938,93.3298195 112.132665,93.14 113.410381,93.14 C114.673724,93.14 115.862,93.3298195 116.97521,93.7088096 C118.086824,94.0886108 119.059485,94.6277307 119.891598,95.3277915 C121.830533,96.946449 122.8,99.0172663 122.8,101.540243 C122.8,104.092423 121.838518,106.170217 119.913958,107.774435 M118.751236,96.2433056 C118.062866,95.6908822 117.254711,95.2570554 116.328366,94.9442588 C115.402022,94.6314622 114.422972,94.4744149 113.389619,94.4744149 C112.354668,94.4744149 111.375618,94.6314622 110.449274,94.9442588 C109.524526,95.2570554 108.716371,95.6908822 108.026404,96.2433056 C106.347804,97.5978382 105.507705,99.3597526 105.507705,101.528887 C105.507705,102.577599 105.694571,103.534808 106.068303,104.400677 C106.440438,105.267195 106.972288,106.009925 107.660658,106.629353 C108.350624,107.247808 109.179543,107.724628 110.14901,108.059489 C111.11688,108.39435 112.198148,108.562105 113.389619,108.562105 C114.581089,108.562105 115.660759,108.391105 116.630227,108.048781 C117.599694,107.706295 118.428613,107.229637 119.116982,106.617834 C119.806949,106.006193 120.340396,105.267195 120.722114,104.400677 C121.102234,103.534808 121.292295,102.577599 121.292295,101.528887 C121.292295,99.3748408 120.44421,97.6124397 118.751236,96.2433056" id="Fill-7" fill="#FFFFFF"></path>
                <polyline id="Fill-8" fill="#FFFFFF" points="142.977151 93.94 142.977151 108.182283 129.655587 93.94 127.6 93.94 127.6 109.54 129.021226 109.54 129.021226 95.2978766 142.386596 109.54 144.4 109.54 144.4 93.94 142.977151 93.94"></polyline>
                <path d="M159.894141,95.2255605 C158.827475,94.9806911 157.683232,94.8580961 156.461414,94.8580961 C154.471919,94.8580961 152.965657,95.1245999 151.94101,95.6577678 C150.916364,96.1902946 150.40404,96.9321143 150.40404,97.8832268 C150.40404,98.3878693 150.531717,98.801487 150.785455,99.1253621 C151.040808,99.4498781 151.417374,99.7128563 151.92,99.9138159 C152.42101,100.116378 153.044848,100.267018 153.793131,100.367978 C154.541414,100.468939 155.415758,100.540573 156.419394,100.584162 C157.799596,100.641373 159.026263,100.713808 160.10101,100.800346 C161.175758,100.886242 162.106667,101.095535 162.890505,101.426942 C164.430707,102.089756 165.2,103.248879 165.2,104.905113 C165.2,106.489873 164.509899,107.724958 163.129697,108.610686 C161.749495,109.497056 159.730909,109.94 157.072323,109.94 C155.284848,109.94 153.668687,109.745611 152.223838,109.356192 C150.77899,108.967574 149.503838,108.391457 148.4,107.627843 L149.227475,106.439233 C150.40404,107.188745 151.606465,107.73922 152.834747,108.092582 C154.061414,108.445624 155.373737,108.621904 156.766869,108.621904 C158.976162,108.621904 160.65697,108.297388 161.812525,107.649638 C162.966465,107.001247 163.545051,106.115518 163.545051,104.991811 C163.545051,104.429797 163.414141,103.965219 163.152323,103.598395 C162.890505,103.230931 162.494545,102.932376 161.964444,102.701449 C161.434343,102.470842 160.765253,102.294722 159.960404,102.171807 C159.153939,102.049853 158.213333,101.967001 157.138586,101.923251 C155.816566,101.86604 154.652929,101.797451 153.652525,101.718446 C152.648889,101.63928 151.784242,101.463 151.058586,101.188964 C150.274747,100.901306 149.692929,100.50131 149.314747,99.989937 C148.936566,99.4785638 148.749091,98.8338585 148.749091,98.0559815 C148.749091,96.6444568 149.398788,95.5388587 150.698182,94.7395075 C151.999192,93.9398358 153.891717,93.54 156.374141,93.54 C158.016162,93.54 159.469091,93.6843896 160.732929,93.9722073 C161.996768,94.260666 163.094141,94.714027 164.023434,95.3330915 L163.021414,96.4140104 C162.004848,95.8664196 160.962424,95.4709106 159.894141,95.2255605" id="Fill-9" fill="#FFFFFF"></path>
                <path d="M185.431628,106.772079 C185.052713,107.424012 184.512999,107.981811 183.810892,108.447387 C183.110378,108.912962 182.250655,109.277554 181.236501,109.542596 C180.219163,109.806842 179.082419,109.94 177.823085,109.94 C176.549422,109.94 175.407902,109.806842 174.398524,109.542596 C173.389147,109.277554 172.527832,108.908502 171.811397,108.436078 C171.096554,107.963812 170.548879,107.405376 170.169964,106.760929 C169.791049,106.117119 169.6,105.408164 169.6,104.634859 L169.6,93.94 L170.996253,93.94 L170.996253,104.098085 C170.996253,107.090798 173.271333,108.586757 177.823085,108.586757 C182.344588,108.586757 184.605339,107.090798 184.605339,104.098085 L184.605339,93.94 L186,93.94 L186,104.634859 C186,105.408164 185.810543,106.120783 185.431628,106.772079" id="Fill-10" fill="#FFFFFF"></path>
                <polyline id="Fill-11" fill="#FFFFFF" points="191.6 93.94 191.6 109.54 205.2 109.54 205.2 108.182283 193.017711 108.182283 193.017711 93.94 191.6 93.94"></polyline>
                <polyline id="Fill-12" fill="#FFFFFF" points="201.2 93.94 201.2 95.2978766 208.695444 95.2978766 208.695444 109.54 210.104556 109.54 210.104556 95.2978766 217.6 95.2978766 217.6 93.94 201.2 93.94"></polyline>
                <polygon id="Fill-16" fill="#D6242C" points="38.4 53.54 74 53.54 74 41.14 38.4 41.14"></polygon>
            </g>
        </g>
    </g>
</svg>